<svg id="Group_2373" data-name="Group 2373" xmlns="http://www.w3.org/2000/svg" viewBox="0 0 25 25">
  <path id="check-button" d="M22.066,0H2.934A2.937,2.937,0,0,0,0,2.934V22.066A2.937,2.937,0,0,0,2.934,25H22.066A2.937,2.937,0,0,0,25,22.066V2.934A2.937,2.937,0,0,0,22.066,0Zm1.956,22.066a1.958,1.958,0,0,1-1.956,1.956H2.934A1.958,1.958,0,0,1,.978,22.066V2.934A1.958,1.958,0,0,1,2.934.978H22.066a1.958,1.958,0,0,1,1.956,1.956Z"/>
  <path id="photo-button" d="M19.108,24.738a.354.354,0,0,0-.291-.205.342.342,0,0,0-.315.162l-4.853,7.5-2.263-2.97a.342.342,0,0,0-.284-.139.347.347,0,0,0-.277.155L7.727,33.8a.4.4,0,0,0-.028.391.352.352,0,0,0,.315.2H23.142a.365.365,0,0,0,.353-.376.39.39,0,0,0-.074-.23ZM8.7,33.645l2.422-3.564,2.27,2.98a.344.344,0,0,0,.288.139.348.348,0,0,0,.277-.163l4.784-7.4,3.813,8ZM13.042,27.3a2.038,2.038,0,1,0-1.914-2.035A1.979,1.979,0,0,0,13.042,27.3Zm0-3.318a1.286,1.286,0,1,1-1.207,1.283A1.248,1.248,0,0,1,13.042,23.979Z" transform="translate(-3.256 -16.223)"/>
</svg>
