<svg xmlns="http://www.w3.org/2000/svg" viewBox="0 0 23.107 22.414">
  <defs>
    <style>
      .cls-1 {
        fill: none;
        stroke: #000;
      }
    </style>
  </defs>
  <g id="camera" transform="translate(0.5 0.5)">
    <path id="Path_2991" data-name="Path 2991" class="cls-1" d="M19.725,3.469H17.481l-.249-1.247A2.842,2.842,0,0,0,14.522,0H7.585a2.842,2.842,0,0,0-2.71,2.221L4.626,3.469H2.382A2.385,2.385,0,0,0,0,5.851V19.031a2.385,2.385,0,0,0,2.382,2.382H19.725a2.385,2.385,0,0,0,2.382-2.382V5.851a2.385,2.385,0,0,0-2.382-2.382Z"/>
    <path id="Path_2992" data-name="Path 2992" class="cls-1" d="M126.351,144.6a5.851,5.851,0,1,0,5.851,5.851A5.857,5.857,0,0,0,126.351,144.6Z" transform="translate(-115.297 -138.358)"/>
    <path id="Path_2993" data-name="Path 2993" d="M402.32,160.668a.648.648,0,1,0,.458.19A.652.652,0,0,0,402.32,160.668Zm0,0" transform="translate(-384.329 -153.731)"/>
  </g>
</svg>
