<?xml version="1.0" encoding="utf-8"?>
<!-- Generator: Adobe Illustrator 21.0.0, SVG Export Plug-In . SVG Version: 6.00 Build 0)  -->
<svg version="1.1" id="Layer_1" xmlns="http://www.w3.org/2000/svg" xmlns:xlink="http://www.w3.org/1999/xlink" x="0px" y="0px"
	 viewBox="0 0 480 480" style="enable-background:new 0 0 480 480;" xml:space="preserve">
<style type="text/css">
	.st0{fill:none;}
	.st1{fill:url(#SVGID_1_);}
	.st2{fill:url(#SVGID_2_);}
	.st3{fill:url(#SVGID_3_);}
</style>
<linearGradient id="SVGID_1_" gradientUnits="userSpaceOnUse" x1="358.4767" y1="445.2076" x2="121.5233" y2="34.7923">
	<stop  offset="0" style="stop-color:#72AFD3"/>
	<stop  offset="1" style="stop-color:#37ECBA"/>
</linearGradient>
<path class="st1" d="M240,477C109.3,477,3,370.7,3,240C3,109.3,109.3,3,240,3s237,106.3,237,237C477,370.7,370.7,477,240,477z
	 M240,44.8C132.4,44.8,44.8,132.4,44.8,240S132.4,435.2,240,435.2S435.2,347.6,435.2,240S347.6,44.8,240,44.8z"/>
<linearGradient id="SVGID_2_" gradientUnits="userSpaceOnUse" x1="252.634" y1="174.515" x2="222.2218" y2="121.8395">
	<stop  offset="0" style="stop-color:#72AFD3"/>
	<stop  offset="1" style="stop-color:#37ECBA"/>
</linearGradient>
<path class="st2" d="M237.4,178.6c-16.8,0-30.4-13.6-30.4-30.4s13.6-30.4,30.4-30.4s30.4,13.6,30.4,30.4S254.2,178.6,237.4,178.6z"
	/>
<linearGradient id="SVGID_3_" gradientUnits="userSpaceOnUse" x1="273.9493" y1="348.1941" x2="200.9064" y2="221.68">
	<stop  offset="0" style="stop-color:#72AFD3"/>
	<stop  offset="1" style="stop-color:#37ECBA"/>
</linearGradient>
<path class="st3" d="M237.4,366.1c-11.5,0-20.9-9.4-20.9-20.9V224.7c0-11.5,9.4-20.9,20.9-20.9c11.5,0,20.9,9.4,20.9,20.9v120.5
	C258.3,356.7,248.9,366.1,237.4,366.1z"/>
</svg>
