<svg xmlns="http://www.w3.org/2000/svg" viewBox="0 0 19.875 24.729">
  <defs>
    <style>
      .cls-1 {
        fill: none;
      }

      .cls-2, .cls-3 {
        stroke: none;
      }
    </style>
  </defs>
  <g id="Group_2209" data-name="Group 2209" transform="translate(-282.393 -55)">
    <g id="Path_2980" data-name="Path 2980" class="cls-1" transform="translate(286 56.611)">
      <path class="cls-2" d="M6.551,0A7.252,7.252,0,0,1,13.8,7.252c0,.956-.568,3.589,0,6.027.623,1.477,2.888,1.28,2.4,4.907-3.152,2.775-17.553,1.918-19.806,0C-3.5,13.968-.946,14.806-.7,12.467a35.728,35.728,0,0,0,0-5.215A7.252,7.252,0,0,1,6.551,0Z"/>
      <path class="cls-3" d="M 6.55074405670166 0.9999980926513672 C 3.103633880615234 0.9999980926513672 0.2992038726806641 3.804418563842773 0.2992038726806641 7.251527786254883 C 0.2992038726806641 7.514887809753418 0.317784309387207 7.856038093566895 0.33929443359375 8.251068115234375 C 0.3980541229248047 9.329998016357422 0.4785242080688477 10.80763816833496 0.2937545776367188 12.57082843780518 C 0.1488943099975586 13.95326805114746 -0.6166458129882812 14.59194755554199 -1.231765747070312 15.10512828826904 C -1.87082576751709 15.63829040527344 -2.431543350219727 16.10617065429688 -2.575379371643066 17.64919281005859 C -2.120223999023438 17.86272811889648 -1.191886901855469 18.18454933166504 0.621734619140625 18.47682762145996 C 2.553604125976562 18.78817749023438 4.855363845825195 18.95963859558105 7.102994441986084 18.95963859558105 C 11.57957077026367 18.95963859558105 14.17992973327637 18.31327438354492 15.25217628479004 17.64362335205078 C 15.37572193145752 16.12388610839844 14.86632061004639 15.72093200683594 14.18163394927979 15.17950820922852 C 13.7154541015625 14.81087875366211 13.18707466125488 14.39305877685547 12.88091468811035 13.66734790802002 L 12.84772396087646 13.58867835998535 L 12.82835388183594 13.50552749633789 C 12.36931419372559 11.53513813018799 12.58215427398682 9.525188446044922 12.72299385070801 8.195158004760742 C 12.76553440093994 7.793437957763672 12.80227470397949 7.446497917175293 12.80227470397949 7.251527786254883 C 12.80227470397949 3.804418563842773 9.997854232788086 0.9999980926513672 6.55074405670166 0.9999980926513672 M 6.55074405670166 -1.9073486328125e-06 C 10.55565452575684 -1.9073486328125e-06 13.80227470397949 3.246618270874023 13.80227470397949 7.251527786254883 C 13.80227470397949 8.207218170166016 13.23427391052246 10.84052848815918 13.80227470397949 13.27863788604736 C 14.42552375793457 14.75593757629395 16.69076347351074 14.55892753601074 16.19832420349121 18.18518829345703 C 14.76312923431396 19.44910049438477 10.99441242218018 19.95963668823242 7.102994441986084 19.95963668823242 C 2.449044227600098 19.95963668823242 -2.38063907623291 19.22966575622559 -3.607234954833984 18.18518829345703 C -3.499345779418945 13.96800804138184 -0.9459657669067383 14.80625820159912 -0.7007961273193359 12.46660804748535 C -0.4556159973144531 10.12694835662842 -0.7007961273193359 8.288468360900879 -0.7007961273193359 7.251527786254883 C -0.7007961273193359 3.246618270874023 2.54582405090332 -1.9073486328125e-06 6.55074405670166 -1.9073486328125e-06 Z"/>
    </g>
    <g id="Path_2981" data-name="Path 2981" class="cls-1" transform="translate(290.134 55)">
      <path class="cls-2" d="M2.417,0A2.417,2.417,0,0,1,4.834,2.417H0A2.417,2.417,0,0,1,2.417,0Z"/>
      <path class="cls-3" d="M 2.417177677154541 0.9999988079071045 C 2.025646924972534 0.9999988079071045 1.670661449432373 1.159625291824341 1.413920402526855 1.417178869247437 L 3.420434951782227 1.417178869247437 C 3.163693904876709 1.159625291824341 2.808708429336548 0.9999988079071045 2.417177677154541 0.9999988079071045 M 2.417177677154541 -1.192092895507812e-06 C 3.752147674560547 -1.192092895507812e-06 4.834357738494873 1.082208871841431 4.834357738494873 2.417178869247437 L -2.384185791015625e-06 2.417178869247437 C -2.384185791015625e-06 1.082208871841431 1.082207679748535 -1.192092895507812e-06 2.417177677154541 -1.192092895507812e-06 Z"/>
    </g>
    <g id="Path_2982" data-name="Path 2982" class="cls-1" transform="translate(296.081 79.728) rotate(180)">
      <path class="cls-2" d="M3.53,0A3.53,3.53,0,0,1,7.06,3.53H0A3.53,3.53,0,0,1,3.53,0Z"/>
      <path class="cls-3" d="M 3.529919385910034 0.9999997615814209 C 2.489884853363037 0.9999997615814209 1.594428539276123 1.630794167518616 1.206052303314209 2.529919624328613 L 5.853786468505859 2.529919624328613 C 5.465410232543945 1.630794167518616 4.569953918457031 0.9999997615814209 3.529919385910034 0.9999997615814209 M 3.529919385910034 -2.384185791015625e-07 C 5.479439258575439 -2.384185791015625e-07 7.059839248657227 1.580399751663208 7.059839248657227 3.529919624328613 L -4.76837158203125e-07 3.529919624328613 C -4.76837158203125e-07 1.580399751663208 1.580399513244629 -2.384185791015625e-07 3.529919385910034 -2.384185791015625e-07 Z"/>
    </g>
  </g>
</svg>
