<?xml version="1.0" encoding="utf-8"?>
<!-- Generator: Adobe Illustrator 21.0.0, SVG Export Plug-In . SVG Version: 6.00 Build 0)  -->
<svg version="1.1" id="Layer_1" xmlns="http://www.w3.org/2000/svg" xmlns:xlink="http://www.w3.org/1999/xlink" x="0px" y="0px"
	 viewBox="0 0 480 480" style="enable-background:new 0 0 480 480;" xml:space="preserve">
<style type="text/css">
	.st0{fill:none;}
	.st1{fill:url(#SVGID_1_);}
	.st2{fill:url(#SVGID_2_);}
	.st3{fill:url(#SVGID_3_);}
	.st4{fill:#37ECBA;}
	.st5{fill:url(#SVGID_4_);}
	.st6{fill:url(#SVGID_5_);}
	.st7{fill:url(#SVGID_6_);}
	.st8{fill:url(#SVGID_7_);}
	.st9{fill:url(#SVGID_8_);}
	.st10{fill:url(#SVGID_9_);}
	.st11{fill:url(#SVGID_10_);}
	.st12{fill:url(#SVGID_11_);}
	.st13{fill:url(#SVGID_12_);}
	.st14{fill:url(#SVGID_13_);}
	.st15{fill:url(#SVGID_14_);}
	.st16{fill:url(#SVGID_15_);}
	.st17{fill:url(#SVGID_16_);}
	.st18{fill:url(#SVGID_17_);}
	.st19{fill:url(#SVGID_18_);}
</style>
<g>
	<g>
		<path class="st4" d="M4.2,145.6h36.2c9.8,0,17.5,2.6,23.4,7.7c5.8,5.1,8.7,12.2,8.7,21.3c0,9.3-2.9,16.5-8.7,21.5
			c-5.8,5-13.6,7.5-23.4,7.5H22.9v27.9H4.2V145.6z M37.7,188.1c10.6,0,15.9-4.5,15.9-13.4c0-5-1.4-8.5-4.2-10.5c-2.8-2-6.7-3-11.6-3
			H22.9v26.8H37.7z"/>
		<path class="st4" d="M95.9,145.6h18.7v34.4h37.5v-34.4h18.7v86h-18.7v-36h-37.5v36H95.9V145.6z"/>
		<path class="st4" d="M326.7,161.3h-25.1v-15.6h68.9v15.6h-25.1v70.4h-18.7V161.3z"/>
		<path class="st4" d="M406.9,227.8c-7-3.8-12.5-9-16.5-15.8c-4-6.8-6-14.5-6-23.3c0-8.8,2-16.6,6-23.4c4-6.8,9.5-12.1,16.5-15.9
			c7-3.8,14.8-5.7,23.4-5.7c8.6,0,16.4,1.9,23.3,5.7c6.9,3.8,12.4,9.1,16.4,15.9c4,6.8,6,14.6,6,23.4c0,8.8-2,16.5-6,23.3
			c-4,6.8-9.5,12-16.4,15.8c-6.9,3.8-14.7,5.7-23.3,5.7C421.7,233.5,413.9,231.6,406.9,227.8z M443.8,212.9c4.1-2.3,7.3-5.5,9.7-9.6
			c2.4-4.1,3.6-9,3.6-14.6c0-5.5-1.2-10.3-3.5-14.5c-2.3-4.1-5.5-7.3-9.6-9.6c-4.1-2.3-8.6-3.4-13.6-3.4c-5.1,0-9.7,1.1-13.7,3.4
			c-4.1,2.3-7.3,5.5-9.7,9.6c-2.4,4.1-3.6,9-3.6,14.5c0,5.6,1.2,10.4,3.6,14.6c2.4,4.1,5.6,7.3,9.7,9.6c4.1,2.3,8.7,3.4,13.7,3.4
			C435.2,216.2,439.7,215.1,443.8,212.9z"/>
		<path class="st4" d="M22,324.6c-5.8-3-10.2-7.2-13.4-12.7c-3.2-5.5-4.7-12-4.7-19.4s1.6-13.9,4.7-19.5c3.2-5.5,7.6-9.8,13.4-12.8
			c5.8-3,12.4-4.5,19.9-4.5c5.1,0,9.6,0.5,13.5,1.6c3.9,1,7.5,2.7,10.8,4.9v14.6c-3-2.4-6.3-4.2-10.1-5.3c-3.8-1.1-8.1-1.7-12.9-1.7
			c-4.5,0-8.5,0.9-12.1,2.8c-3.6,1.8-6.4,4.5-8.5,7.9c-2.1,3.4-3.1,7.4-3.1,12c0,4.6,1,8.7,2.9,12.1c1.9,3.5,4.6,6.1,8.1,8
			c3.5,1.9,7.5,2.8,12.1,2.8c4.2,0,7.8-0.7,10.9-2.2v-13.6H42v-11.3h26.2v33.9c-6.6,4.6-15.4,6.8-26.3,6.8
			C34.4,329.1,27.8,327.6,22,324.6z"/>
		<path class="st4" d="M79.3,257.3h30.5c8,0,14.2,2,18.7,6c4.5,4,6.7,9.7,6.7,17.3c0,5.2-1.2,9.7-3.6,13.3c-2.4,3.7-5.8,6.3-10.3,8
			l13.4,25.8h-15.7l-12.4-23.8h-12v23.8H79.3V257.3z M107,291c3.9,0,7-0.8,9.2-2.5c2.2-1.7,3.4-4.3,3.4-7.9c0-3.8-1.1-6.5-3.3-8.1
			c-2.2-1.6-5.3-2.4-9.3-2.4H94.6V291H107z"/>
		<path class="st4" d="M167.8,257.3h15l28.1,70.3h-15.6l-6-15.3h-27.9l-6,15.3h-15.7L167.8,257.3z M185.2,300.1l-10-26.8l-10,26.8
			H185.2z"/>
		<path class="st4" d="M221.8,257.3h29.6c8,0,14.4,2.1,19.1,6.3c4.8,4.2,7.1,10,7.1,17.5c0,7.6-2.4,13.5-7.1,17.6
			c-4.7,4.1-11.1,6.1-19.2,6.1h-14.3v22.8h-15.3V257.3z M249.2,292c8.7,0,13-3.7,13-11c0-4.1-1.2-6.9-3.5-8.6
			c-2.3-1.6-5.5-2.4-9.5-2.4h-12.1V292H249.2z"/>
		<path class="st4" d="M287.2,257.3h15.3v28.2h30.7v-28.2h15.3v70.3h-15.3v-29.5h-30.7v29.5h-15.3V257.3z"/>
		<path class="st4" d="M361.5,257.3h48.8V270h-33.5v16.3h24.7v12.3h-24.7v16.2h33.5v12.8h-48.8V257.3z"/>
		<path class="st4" d="M420.2,257.3h30.5c8,0,14.2,2,18.7,6c4.5,4,6.7,9.7,6.7,17.3c0,5.2-1.2,9.7-3.6,13.3c-2.4,3.7-5.8,6.3-10.3,8
			l13.4,25.8h-15.7l-12.4-23.8h-12v23.8h-15.3V257.3z M448,291c3.9,0,7-0.8,9.2-2.5c2.2-1.7,3.4-4.3,3.4-7.9c0-3.8-1.1-6.5-3.3-8.1
			c-2.2-1.6-5.3-2.4-9.3-2.4h-12.5V291H448z"/>
		<g>
			<linearGradient id="SVGID_1_" gradientUnits="userSpaceOnUse" x1="198.6201" y1="188.6205" x2="286.4741" y2="188.6205">
				<stop  offset="0" style="stop-color:#72AFD3"/>
				<stop  offset="1" style="stop-color:#37ECBA"/>
			</linearGradient>
			<path class="st1" d="M273.1,158.1h-3.8l-0.1-0.4c-1.5-6.8-7.4-11.6-14.4-11.8l-24.6,0c-6.9,0.2-12.8,5-14.4,11.8l-0.1,0.4H212
				c-7.4,0-13.4,6-13.4,13.4v46.4c0,7.4,6,13.4,13.4,13.4h61c7.4,0,13.4-6,13.4-13.4v-46.4C286.5,164.1,280.4,158.1,273.1,158.1z
				 M212,221.2c-1.8,0-3.3-1.5-3.3-3.3v-46.4c0-1.8,1.5-3.3,3.3-3.3h12l1.7-8.3c0.5-2.2,2.4-3.8,4.6-3.9l24.3,0
				c2.3,0.1,4.2,1.6,4.7,3.8l1.7,8.4h12c1.8,0,3.3,1.5,3.3,3.3v46.4c0,1.8-1.5,3.3-3.3,3.3H212z"/>
			<linearGradient id="SVGID_2_" gradientUnits="userSpaceOnUse" x1="216.9238" y1="193.4977" x2="272.513" y2="193.4977">
				<stop  offset="0" style="stop-color:#72AFD3"/>
				<stop  offset="1" style="stop-color:#37ECBA"/>
			</linearGradient>
			<path class="st2" d="M267,172.1L267,172.1C267,172.1,267,172.1,267,172.1c-2.6,0-4.8,1.8-5.4,4.3c-4.7-5.2-11.5-8.5-19-8.5
				c-14.1,0-25.6,11.5-25.6,25.6s11.5,25.6,25.6,25.6c14.1,0,25.6-11.5,25.6-25.6c0-3.7-0.8-7.2-2.2-10.4c0.3,0.1,0.7,0.1,1,0.1
				c0,0,0,0,0,0c1.5,0,2.9-0.6,3.9-1.6c1.1-1.1,1.6-2.4,1.6-3.9c0-1.5-0.6-2.9-1.6-3.9C269.8,172.7,268.4,172.1,267,172.1z
				 M242.5,178c8.6,0,15.5,7,15.5,15.5c0,8.6-7,15.5-15.5,15.5c-8.6,0-15.5-7-15.5-15.5C227,184.9,234,178,242.5,178z"/>
		</g>
	</g>
	<g>
		<linearGradient id="SVGID_3_" gradientUnits="userSpaceOnUse" x1="336.9415" y1="407.6292" x2="140.3165" y2="67.0645">
			<stop  offset="0" style="stop-color:#72AFD3"/>
			<stop  offset="1" style="stop-color:#37ECBA"/>
		</linearGradient>
		<path class="st3" d="M4.2,145.6h36.2c9.8,0,17.5,2.6,23.4,7.7c5.8,5.1,8.7,12.2,8.7,21.3c0,9.3-2.9,16.5-8.7,21.5
			c-5.8,5-13.6,7.5-23.4,7.5H22.9v27.9H4.2V145.6z M37.7,188.1c10.6,0,15.9-4.5,15.9-13.4c0-5-1.4-8.5-4.2-10.5c-2.8-2-6.7-3-11.6-3
			H22.9v26.8H37.7z"/>
		<linearGradient id="SVGID_4_" gradientUnits="userSpaceOnUse" x1="336.9415" y1="407.6292" x2="140.3165" y2="67.0645">
			<stop  offset="0" style="stop-color:#72AFD3"/>
			<stop  offset="1" style="stop-color:#37ECBA"/>
		</linearGradient>
		<path class="st5" d="M95.9,145.6h18.7v34.4h37.5v-34.4h18.7v86h-18.7v-36h-37.5v36H95.9V145.6z"/>
		<linearGradient id="SVGID_5_" gradientUnits="userSpaceOnUse" x1="336.9415" y1="407.6292" x2="140.3165" y2="67.0645">
			<stop  offset="0" style="stop-color:#72AFD3"/>
			<stop  offset="1" style="stop-color:#37ECBA"/>
		</linearGradient>
		<path class="st6" d="M326.7,161.3h-25.1v-15.6h68.9v15.6h-25.1v70.4h-18.7V161.3z"/>
		<linearGradient id="SVGID_6_" gradientUnits="userSpaceOnUse" x1="336.9415" y1="407.6292" x2="140.3165" y2="67.0645">
			<stop  offset="0" style="stop-color:#72AFD3"/>
			<stop  offset="1" style="stop-color:#37ECBA"/>
		</linearGradient>
		<path class="st7" d="M406.9,227.8c-7-3.8-12.5-9-16.5-15.8c-4-6.8-6-14.5-6-23.3c0-8.8,2-16.6,6-23.4c4-6.8,9.5-12.1,16.5-15.9
			c7-3.8,14.8-5.7,23.4-5.7c8.6,0,16.4,1.9,23.3,5.7c6.9,3.8,12.4,9.1,16.4,15.9c4,6.8,6,14.6,6,23.4c0,8.8-2,16.5-6,23.3
			c-4,6.8-9.5,12-16.4,15.8c-6.9,3.8-14.7,5.7-23.3,5.7C421.7,233.5,413.9,231.6,406.9,227.8z M443.8,212.9c4.1-2.3,7.3-5.5,9.7-9.6
			c2.4-4.1,3.6-9,3.6-14.6c0-5.5-1.2-10.3-3.5-14.5c-2.3-4.1-5.5-7.3-9.6-9.6c-4.1-2.3-8.6-3.4-13.6-3.4c-5.1,0-9.7,1.1-13.7,3.4
			c-4.1,2.3-7.3,5.5-9.7,9.6c-2.4,4.1-3.6,9-3.6,14.5c0,5.6,1.2,10.4,3.6,14.6c2.4,4.1,5.6,7.3,9.7,9.6c4.1,2.3,8.7,3.4,13.7,3.4
			C435.2,216.2,439.7,215.1,443.8,212.9z"/>
		<linearGradient id="SVGID_7_" gradientUnits="userSpaceOnUse" x1="336.9415" y1="407.6292" x2="140.3165" y2="67.0645">
			<stop  offset="0" style="stop-color:#72AFD3"/>
			<stop  offset="1" style="stop-color:#37ECBA"/>
		</linearGradient>
		<path class="st8" d="M22,324.6c-5.8-3-10.2-7.2-13.4-12.7c-3.2-5.5-4.7-12-4.7-19.4s1.6-13.9,4.7-19.5c3.2-5.5,7.6-9.8,13.4-12.8
			c5.8-3,12.4-4.5,19.9-4.5c5.1,0,9.6,0.5,13.5,1.6c3.9,1,7.5,2.7,10.8,4.9v14.6c-3-2.4-6.3-4.2-10.1-5.3c-3.8-1.1-8.1-1.7-12.9-1.7
			c-4.5,0-8.5,0.9-12.1,2.8c-3.6,1.8-6.4,4.5-8.5,7.9c-2.1,3.4-3.1,7.4-3.1,12c0,4.6,1,8.7,2.9,12.1c1.9,3.5,4.6,6.1,8.1,8
			c3.5,1.9,7.5,2.8,12.1,2.8c4.2,0,7.8-0.7,10.9-2.2v-13.6H42v-11.3h26.2v33.9c-6.6,4.6-15.4,6.8-26.3,6.8
			C34.4,329.1,27.8,327.6,22,324.6z"/>
		<linearGradient id="SVGID_8_" gradientUnits="userSpaceOnUse" x1="336.9415" y1="407.6292" x2="140.3165" y2="67.0645">
			<stop  offset="0" style="stop-color:#72AFD3"/>
			<stop  offset="1" style="stop-color:#37ECBA"/>
		</linearGradient>
		<path class="st9" d="M79.3,257.3h30.5c8,0,14.2,2,18.7,6c4.5,4,6.7,9.7,6.7,17.3c0,5.2-1.2,9.7-3.6,13.3c-2.4,3.7-5.8,6.3-10.3,8
			l13.4,25.8h-15.7l-12.4-23.8h-12v23.8H79.3V257.3z M107,291c3.9,0,7-0.8,9.2-2.5c2.2-1.7,3.4-4.3,3.4-7.9c0-3.8-1.1-6.5-3.3-8.1
			c-2.2-1.6-5.3-2.4-9.3-2.4H94.6V291H107z"/>
		<linearGradient id="SVGID_9_" gradientUnits="userSpaceOnUse" x1="336.9415" y1="407.6292" x2="140.3165" y2="67.0645">
			<stop  offset="0" style="stop-color:#72AFD3"/>
			<stop  offset="1" style="stop-color:#37ECBA"/>
		</linearGradient>
		<path class="st10" d="M167.8,257.3h15l28.1,70.3h-15.6l-6-15.3h-27.9l-6,15.3h-15.7L167.8,257.3z M185.2,300.1l-10-26.8l-10,26.8
			H185.2z"/>
		<linearGradient id="SVGID_10_" gradientUnits="userSpaceOnUse" x1="336.9415" y1="407.6292" x2="140.3165" y2="67.0645">
			<stop  offset="0" style="stop-color:#72AFD3"/>
			<stop  offset="1" style="stop-color:#37ECBA"/>
		</linearGradient>
		<path class="st11" d="M221.8,257.3h29.6c8,0,14.4,2.1,19.1,6.3c4.8,4.2,7.1,10,7.1,17.5c0,7.6-2.4,13.5-7.1,17.6
			c-4.7,4.1-11.1,6.1-19.2,6.1h-14.3v22.8h-15.3V257.3z M249.2,292c8.7,0,13-3.7,13-11c0-4.1-1.2-6.9-3.5-8.6
			c-2.3-1.6-5.5-2.4-9.5-2.4h-12.1V292H249.2z"/>
		<linearGradient id="SVGID_11_" gradientUnits="userSpaceOnUse" x1="336.9415" y1="407.6292" x2="140.3165" y2="67.0645">
			<stop  offset="0" style="stop-color:#72AFD3"/>
			<stop  offset="1" style="stop-color:#37ECBA"/>
		</linearGradient>
		<path class="st12" d="M287.2,257.3h15.3v28.2h30.7v-28.2h15.3v70.3h-15.3v-29.5h-30.7v29.5h-15.3V257.3z"/>
		<linearGradient id="SVGID_12_" gradientUnits="userSpaceOnUse" x1="336.9415" y1="407.6292" x2="140.3165" y2="67.0645">
			<stop  offset="0" style="stop-color:#72AFD3"/>
			<stop  offset="1" style="stop-color:#37ECBA"/>
		</linearGradient>
		<path class="st13" d="M361.5,257.3h48.8V270h-33.5v16.3h24.7v12.3h-24.7v16.2h33.5v12.8h-48.8V257.3z"/>
		<linearGradient id="SVGID_13_" gradientUnits="userSpaceOnUse" x1="336.9415" y1="407.6292" x2="140.3165" y2="67.0645">
			<stop  offset="0" style="stop-color:#72AFD3"/>
			<stop  offset="1" style="stop-color:#37ECBA"/>
		</linearGradient>
		<path class="st14" d="M420.2,257.3h30.5c8,0,14.2,2,18.7,6c4.5,4,6.7,9.7,6.7,17.3c0,5.2-1.2,9.7-3.6,13.3
			c-2.4,3.7-5.8,6.3-10.3,8l13.4,25.8h-15.7l-12.4-23.8h-12v23.8h-15.3V257.3z M448,291c3.9,0,7-0.8,9.2-2.5
			c2.2-1.7,3.4-4.3,3.4-7.9c0-3.8-1.1-6.5-3.3-8.1c-2.2-1.6-5.3-2.4-9.3-2.4h-12.5V291H448z"/>
		<g>
			<linearGradient id="SVGID_14_" gradientUnits="userSpaceOnUse" x1="336.9415" y1="407.6292" x2="140.3165" y2="67.0645">
				<stop  offset="0" style="stop-color:#72AFD3"/>
				<stop  offset="1" style="stop-color:#37ECBA"/>
			</linearGradient>
			<path class="st15" d="M273.1,158.1h-3.8l-0.1-0.4c-1.5-6.8-7.4-11.6-14.4-11.8l-24.6,0c-6.9,0.2-12.8,5-14.4,11.8l-0.1,0.4H212
				c-7.4,0-13.4,6-13.4,13.4v46.4c0,7.4,6,13.4,13.4,13.4h61c7.4,0,13.4-6,13.4-13.4v-46.4C286.5,164.1,280.4,158.1,273.1,158.1z
				 M212,221.2c-1.8,0-3.3-1.5-3.3-3.3v-46.4c0-1.8,1.5-3.3,3.3-3.3h12l1.7-8.3c0.5-2.2,2.4-3.8,4.6-3.9l24.3,0
				c2.3,0.1,4.2,1.6,4.7,3.8l1.7,8.4h12c1.8,0,3.3,1.5,3.3,3.3v46.4c0,1.8-1.5,3.3-3.3,3.3H212z"/>
			<linearGradient id="SVGID_15_" gradientUnits="userSpaceOnUse" x1="336.9415" y1="407.6292" x2="140.3165" y2="67.0645">
				<stop  offset="0" style="stop-color:#72AFD3"/>
				<stop  offset="1" style="stop-color:#37ECBA"/>
			</linearGradient>
			<path class="st16" d="M267,172.1L267,172.1C267,172.1,267,172.1,267,172.1c-2.6,0-4.8,1.8-5.4,4.3c-4.7-5.2-11.5-8.5-19-8.5
				c-14.1,0-25.6,11.5-25.6,25.6s11.5,25.6,25.6,25.6c14.1,0,25.6-11.5,25.6-25.6c0-3.7-0.8-7.2-2.2-10.4c0.3,0.1,0.7,0.1,1,0.1
				c0,0,0,0,0,0c1.5,0,2.9-0.6,3.9-1.6c1.1-1.1,1.6-2.4,1.6-3.9c0-1.5-0.6-2.9-1.6-3.9C269.8,172.7,268.4,172.1,267,172.1z
				 M242.5,178c8.6,0,15.5,7,15.5,15.5c0,8.6-7,15.5-15.5,15.5c-8.6,0-15.5-7-15.5-15.5C227,184.9,234,178,242.5,178z"/>
		</g>
	</g>
</g>
</svg>
