<svg xmlns="http://www.w3.org/2000/svg" viewBox="0 0 25 25">
  <defs>
    <style>
      .cls-1, .cls-2, .cls-4 {
        fill: none;
      }

      .cls-1 {
        stroke: #000;
      }

      .cls-3, .cls-5 {
        stroke: none;
      }
    </style>
  </defs>
  <g id="Group_2615" data-name="Group 2615" transform="translate(-369 -57)">
    <g id="Ellipse_6" data-name="Ellipse 6" class="cls-1" transform="translate(369 57)">
      <circle class="cls-3" cx="12.5" cy="12.5" r="12.5"/>
      <circle class="cls-4" cx="12.5" cy="12.5" r="12"/>
    </g>
    <g id="Ellipse_3" data-name="Ellipse 3" class="cls-1" transform="translate(376.359 62)">
      <ellipse class="cls-3" cx="5.111" cy="5.111" rx="5.111" ry="5.111"/>
      <ellipse class="cls-4" cx="5.111" cy="5.111" rx="4.611" ry="4.611"/>
    </g>
    <g id="Path_2977" data-name="Path 2977" class="cls-2" transform="translate(374 71.436)">
      <path class="cls-3" d="M7.47,0a7.47,7.47,0,0,1,7.47,7.47C14.94,11.6,0,11.6,0,7.47A7.47,7.47,0,0,1,7.47,0Z"/>
      <path class="cls-5" d="M 7.470004558563232 1.000003814697266 C 3.902434349060059 1.000003814697266 1.000004768371582 3.902433395385742 1.000004768371582 7.470013618469238 C 1.000004768371582 8.159293174743652 2.1748046875 8.666263580322266 2.67989444732666 8.85223388671875 C 3.908774375915527 9.304693222045898 5.654694557189941 9.564193725585938 7.470004558563232 9.564193725585938 C 9.285314559936523 9.564193725585938 11.03123474121094 9.304693222045898 12.2601146697998 8.85223388671875 C 12.76520442962646 8.666263580322266 13.94000434875488 8.159293174743652 13.94000434875488 7.470013618469238 C 13.94000434875488 3.902433395385742 11.03757476806641 1.000003814697266 7.470004558563232 1.000003814697266 M 7.470004558563232 3.814697265625e-06 C 11.59557437896729 3.814697265625e-06 14.94000434875488 3.344443321228027 14.94000434875488 7.470013618469238 C 14.94000434875488 9.532798767089844 11.20500469207764 10.56419086456299 7.470004558563232 10.56419086456299 C 3.735004425048828 10.56419086456299 4.76837158203125e-06 9.532798767089844 4.76837158203125e-06 7.470013618469238 C 4.76837158203125e-06 3.344443321228027 3.34443473815918 3.814697265625e-06 7.470004558563232 3.814697265625e-06 Z"/>
    </g>
  </g>
</svg>
