<svg xmlns="http://www.w3.org/2000/svg" viewBox="0 0 26.029 26.022">
  <defs>
    <style>
      .cls-1 {
        fill: none;
        stroke: #000;
      }
    </style>
  </defs>
  <g id="star" transform="translate(0.514 0.5)">
    <path id="Path_2985" data-name="Path 2985" class="cls-1" d="M13.708,1.832l2.82,5.974a1.352,1.352,0,0,0,1.014.77l6.305.958a1.425,1.425,0,0,1,.746,2.4l-4.562,4.65a1.448,1.448,0,0,0-.387,1.246L20.72,24.4a1.36,1.36,0,0,1-1.953,1.484l-5.639-3.1a1.3,1.3,0,0,0-1.253,0l-5.639,3.1A1.36,1.36,0,0,1,4.281,24.4l1.077-6.566a1.448,1.448,0,0,0-.387-1.246L.409,11.935a1.425,1.425,0,0,1,.746-2.4L7.46,8.576a1.352,1.352,0,0,0,1.014-.77l2.82-5.974A1.321,1.321,0,0,1,13.708,1.832Z" transform="translate(-0.001 -1.047)"/>
  </g>
</svg>
